<svg width="240" height="48" viewBox="0 0 240 48" fill="none" xmlns="http://www.w3.org/2000/svg">
<path d="M221.968 13.5745V44.2561H209.891V39.5777C208.948 41.0283 207.679 42.207 206.083 43.1137C204.523 44.0203 202.656 44.4737 200.48 44.4737C196.962 44.4737 194.205 43.295 192.211 40.9377C190.252 38.5803 189.273 35.3889 189.273 31.3633V13.5745H201.296V29.8401C201.296 31.2907 201.676 32.4513 202.438 33.3217C203.236 34.1558 204.288 34.5729 205.593 34.5729C206.935 34.5729 207.987 34.1558 208.748 33.3217C209.51 32.4513 209.891 31.2907 209.891 29.8401V13.5745H221.968Z" stroke="black" stroke-width="1.1" stroke-linejoin="round"/>
<path d="M171.104 44.6369C166.498 44.6369 162.69 43.5671 159.68 41.4273C156.706 39.2513 155.092 36.078 154.838 31.9073H167.677C167.858 34.1196 168.837 35.2257 170.614 35.2257C171.267 35.2257 171.811 35.0807 172.246 34.7905C172.718 34.4641 172.953 33.9745 172.953 33.3217C172.953 32.4151 172.464 31.6897 171.485 31.1457C170.505 30.5655 168.982 29.9127 166.915 29.1873C164.449 28.3169 162.4 27.4647 160.768 26.6305C159.172 25.7964 157.794 24.5815 156.633 22.9857C155.473 21.39 154.911 19.3409 154.947 16.8385C154.947 14.3361 155.582 12.2145 156.851 10.4737C158.157 8.69667 159.915 7.3548 162.128 6.44813C164.376 5.54147 166.897 5.08813 169.689 5.08813C174.404 5.08813 178.139 6.17613 180.896 8.35213C183.688 10.5281 185.157 13.5927 185.302 17.5457H172.301C172.264 16.4577 171.992 15.678 171.485 15.2065C170.977 14.7351 170.36 14.4993 169.635 14.4993C169.127 14.4993 168.71 14.6807 168.384 15.0433C168.057 15.3697 167.894 15.8412 167.894 16.4577C167.894 17.3281 168.366 18.0535 169.309 18.6337C170.288 19.1777 171.829 19.8487 173.933 20.6465C176.362 21.5532 178.357 22.4236 179.917 23.2577C181.512 24.0919 182.89 25.2524 184.051 26.7393C185.211 28.2263 185.792 30.094 185.792 32.3425C185.792 34.6999 185.211 36.8215 184.051 38.7073C182.89 40.5569 181.204 42.0076 178.992 43.0593C176.779 44.1111 174.15 44.6369 171.104 44.6369Z" stroke="black" stroke-width="1.1" stroke-linejoin="round"/>
<path d="M139.704 4V44.256H127.628V4H139.704Z" stroke="black" stroke-width="1.1" stroke-linejoin="round"/>
<path d="M125.352 28.6432C125.352 29.4773 125.298 30.2752 125.189 31.0368H105.768C105.95 33.6843 107.056 35.008 109.087 35.008C110.392 35.008 111.335 34.4096 111.915 33.2128H124.699C124.264 35.3888 123.339 37.3472 121.925 39.088C120.547 40.7925 118.788 42.1525 116.648 43.168C114.545 44.1472 112.224 44.6368 109.685 44.6368C106.639 44.6368 103.919 44.0021 101.525 42.7328C99.1677 41.4635 97.3181 39.6501 95.9762 37.2928C94.6706 34.8992 94.0178 32.1067 94.0178 28.9152C94.0178 25.7237 94.6706 22.9493 95.9762 20.592C97.3181 18.1984 99.1677 16.3669 101.525 15.0976C103.919 13.8283 106.639 13.1936 109.685 13.1936C112.731 13.1936 115.433 13.8283 117.791 15.0976C120.184 16.3307 122.034 18.1077 123.339 20.4288C124.681 22.7499 125.352 25.488 125.352 28.6432ZM113.112 25.76C113.112 24.7445 112.786 23.9829 112.133 23.4752C111.48 22.9312 110.664 22.6592 109.685 22.6592C107.545 22.6592 106.294 23.6928 105.931 25.76H113.112Z" stroke="black" stroke-width="1.1" stroke-linejoin="round"/>
<path d="M70.6293 17.7632C71.3909 16.3488 72.4789 15.2427 73.8933 14.4448C75.344 13.6107 77.0666 13.1936 79.0613 13.1936C81.4549 13.1936 83.6128 13.8283 85.5349 15.0976C87.457 16.3307 88.9621 18.144 90.0501 20.5376C91.1744 22.8949 91.7365 25.6875 91.7365 28.9152C91.7365 32.1429 91.1744 34.9536 90.0501 37.3472C88.9621 39.7045 87.457 41.5179 85.5349 42.7872C83.6128 44.0203 81.4549 44.6368 79.0613 44.6368C77.0666 44.6368 75.344 44.2379 73.8933 43.44C72.4789 42.6059 71.3909 41.4816 70.6293 40.0672V44.256H58.5525V4H70.6293V17.7632ZM79.4965 28.9152C79.4965 27.2832 79.0794 26.0139 78.2453 25.1072C77.4112 24.2005 76.3413 23.7472 75.0357 23.7472C73.7301 23.7472 72.6602 24.2005 71.8261 25.1072C70.992 26.0139 70.5749 27.2832 70.5749 28.9152C70.5749 30.5472 70.992 31.8165 71.8261 32.7232C72.6602 33.6299 73.7301 34.0832 75.0357 34.0832C76.3413 34.0832 77.4112 33.6299 78.2453 32.7232C79.0794 31.8165 79.4965 30.5472 79.4965 28.9152Z" stroke="black" stroke-width="1.1" stroke-linejoin="round"/>
<path d="M43.6842 38.4354H30.8458L28.9418 44.2562H16.2666L30.3562 5.74097H44.2826L58.3178 44.2562H45.5882L43.6842 38.4354ZM40.7466 29.3506L37.265 18.6338L33.7834 29.3506H40.7466Z" stroke="black" stroke-width="1.1" stroke-linejoin="round"/>
</svg>
