<svg width="240" height="48" viewBox="0 0 240 48" fill="none" xmlns="http://www.w3.org/2000/svg">
<path d="M221.968 13.5745V44.2561H209.891V39.5777C208.948 41.0283 207.679 42.207 206.083 43.1137C204.524 44.0203 202.656 44.4737 200.48 44.4737C196.962 44.4737 194.206 43.295 192.211 40.9377C190.253 38.5803 189.273 35.3889 189.273 31.3633V13.5745H201.296V29.8401C201.296 31.2907 201.677 32.4513 202.438 33.3217C203.236 34.1558 204.288 34.5729 205.593 34.5729C206.935 34.5729 207.987 34.1558 208.749 33.3217C209.51 32.4513 209.891 31.2907 209.891 29.8401V13.5745H221.968Z" fill="white" stroke="#111111" stroke-width="1.2"/>
<path d="M171.103 44.6369C166.498 44.6369 162.69 43.5671 159.679 41.4273C156.706 39.2513 155.092 36.078 154.838 31.9073H167.676C167.858 34.1196 168.837 35.2257 170.614 35.2257C171.267 35.2257 171.811 35.0807 172.246 34.7905C172.717 34.4641 172.953 33.9745 172.953 33.3217C172.953 32.4151 172.463 31.6897 171.484 31.1457C170.505 30.5655 168.982 29.9127 166.915 29.1873C164.449 28.3169 162.399 27.4647 160.767 26.6305C159.172 25.7964 157.794 24.5815 156.633 22.9857C155.473 21.39 154.91 19.3409 154.947 16.8385C154.947 14.3361 155.581 12.2145 156.851 10.4737C158.156 8.69667 159.915 7.3548 162.127 6.44813C164.376 5.54147 166.897 5.08813 169.689 5.08813C174.404 5.08813 178.139 6.17613 180.895 8.35213C183.688 10.5281 185.157 13.5927 185.302 17.5457H172.3C172.264 16.4577 171.992 15.678 171.484 15.2065C170.977 14.7351 170.36 14.4993 169.635 14.4993C169.127 14.4993 168.71 14.6807 168.383 15.0433C168.057 15.3697 167.894 15.8412 167.894 16.4577C167.894 17.3281 168.365 18.0535 169.308 18.6337C170.287 19.1777 171.829 19.8487 173.932 20.6465C176.362 21.5532 178.357 22.4236 179.916 23.2577C181.512 24.0919 182.89 25.2524 184.051 26.7393C185.211 28.2263 185.791 30.094 185.791 32.3425C185.791 34.6999 185.211 36.8215 184.051 38.7073C182.89 40.5569 181.204 42.0076 178.991 43.0593C176.779 44.1111 174.15 44.6369 171.103 44.6369Z" fill="white" stroke="#111111" stroke-width="1.2"/>
<path d="M139.705 4V44.256H127.628V4H139.705Z" fill="white" stroke="#111111" stroke-width="1.2"/>
<path d="M125.352 28.6432C125.352 29.4773 125.298 30.2752 125.189 31.0368H105.768C105.949 33.6843 107.055 35.008 109.086 35.008C110.392 35.008 111.335 34.4096 111.915 33.2128H124.699C124.264 35.3888 123.339 37.3472 121.925 39.088C120.547 40.7925 118.788 42.1525 116.648 43.168C114.545 44.1472 112.223 44.6368 109.685 44.6368C106.638 44.6368 103.918 44.0021 101.525 42.7328C99.1674 41.4635 97.3178 39.6501 95.976 37.2928C94.6704 34.8992 94.0176 32.1067 94.0176 28.9152C94.0176 25.7237 94.6704 22.9493 95.976 20.592C97.3178 18.1984 99.1674 16.3669 101.525 15.0976C103.918 13.8283 106.638 13.1936 109.685 13.1936C112.731 13.1936 115.433 13.8283 117.79 15.0976C120.184 16.3307 122.034 18.1077 123.339 20.4288C124.681 22.7499 125.352 25.488 125.352 28.6432ZM113.112 25.76C113.112 24.7445 112.786 23.9829 112.133 23.4752C111.48 22.9312 110.664 22.6592 109.685 22.6592C107.545 22.6592 106.294 23.6928 105.931 25.76H113.112Z" fill="white" stroke="#111111" stroke-width="1.2"/>
<path d="M70.6295 17.7632C71.3911 16.3488 72.4791 15.2427 73.8935 14.4448C75.3442 13.6107 77.0669 13.1936 79.0615 13.1936C81.4551 13.1936 83.613 13.8283 85.5351 15.0976C87.4573 16.3307 88.9623 18.144 90.0503 20.5376C91.1746 22.8949 91.7367 25.6875 91.7367 28.9152C91.7367 32.1429 91.1746 34.9536 90.0503 37.3472C88.9623 39.7045 87.4573 41.5179 85.5351 42.7872C83.613 44.0203 81.4551 44.6368 79.0615 44.6368C77.0669 44.6368 75.3442 44.2379 73.8935 43.44C72.4791 42.6059 71.3911 41.4816 70.6295 40.0672V44.256H58.5527V4H70.6295V17.7632ZM79.4967 28.9152C79.4967 27.2832 79.0797 26.0139 78.2455 25.1072C77.4114 24.2005 76.3415 23.7472 75.0359 23.7472C73.7303 23.7472 72.6605 24.2005 71.8263 25.1072C70.9922 26.0139 70.5751 27.2832 70.5751 28.9152C70.5751 30.5472 70.9922 31.8165 71.8263 32.7232C72.6605 33.6299 73.7303 34.0832 75.0359 34.0832C76.3415 34.0832 77.4114 33.6299 78.2455 32.7232C79.0797 31.8165 79.4967 30.5472 79.4967 28.9152Z" fill="white" stroke="#111111" stroke-width="1.2"/>
<path d="M43.6842 38.4354H30.8458L28.9418 44.2562H16.2666L30.3562 5.74097H44.2826L58.3178 44.2562H45.5882L43.6842 38.4354ZM40.7466 29.3506L37.265 18.6338L33.7834 29.3506H40.7466Z" fill="white" stroke="#111111" stroke-width="1.2"/>
</svg>
